<svg width="114" height="30" viewBox="0 0 114 30" version="1.1" xmlns="http://www.w3.org/2000/svg" xmlns:xlink="http://www.w3.org/1999/xlink"><path d="M37.7184367,1.2936535 C29.7895121,1.2936535 23.3669857,7.71857192 23.3669857,15.6490186 C23.3669857,23.5750816 29.7895121,30 37.7184367,30 C45.643465,30 52.0698876,23.5750816 52.0698876,15.6490186 C52.0698876,7.71857192 45.643465,1.2936535 37.7184367,1.2936535 Z M37.6862924,27.7745848 C30.9895655,27.7745848 25.5605899,22.345234 25.5605899,15.6490186 C25.5605899,8.9493936 30.9895655,3.52150407 37.6862924,3.52150407 C44.3888636,3.52150407 49.8178392,8.9493936 49.8178392,15.6490186 C49.8178392,22.345234 44.3888636,27.7745848 37.6862924,27.7745848 Z M32.9706278,7.00740344 L37.1011689,11.1348205 L37.1011689,12.571185 L34.3377341,15.3406556 L32.9706278,15.3406556 L28.9584361,11.3218548 L28.2278841,13.6261751 L28.7572908,16.7887098 L32.1757872,20.211339 L37.1011689,20.2946276 L41.5852972,25.2266816 C41.5852972,25.2266816 45.0422694,24.2301398 47.0917113,20.0140763 L42.22867,15.3825435 L42.1122687,10.4061663 L38.9480044,7.00740344 L35.0225049,6.36106376 L32.9706278,7.00740344 Z M25.6455775,4.66319225 L27.2269791,2.49719936 L10.5884133,2.49719936 L5.73024236,8.17690322 L1.27436206,8.17690322 C1.27436206,8.17690322 -1.1953908,10.0009741 0.741546121,10.8830549 C2.40671769,11.6360625 2.55087996,11.6945107 2.56451693,11.6945107 L0.98068015,14.2131411 L0.98068015,28.7998636 L9.06496881,28.7998636 L9.06496881,26.0703327 L24.3568837,26.0703327 C24.3568837,26.0703327 19.3516283,20.5888656 21.3119429,10.6960207 L6.42913712,10.7559301 L11.2347083,4.66319225 L25.6455775,4.66319225 Z M10.1237822,14.6237397 C10.1237822,14.6237397 11.8810033,15.9383371 11.1509384,17.3157664 C10.416003,18.6927086 6.2294529,17.8719984 4.53262408,17.3157664 C4.53262408,17.3157664 3.44361453,16.4668063 3.35740939,15.7956261 C3.27120425,15.1186011 3.59021197,14.0037017 3.59021197,14.0037017 C3.59021197,14.0037017 7.37008812,14.9456919 10.1237822,14.6237397 Z M60.7612163,12.423165 C61.1372071,11.9614242 61.5779734,11.6350884 62.0801062,11.4392869 C62.5817519,11.2429984 63.1267437,11.1465589 63.7116724,11.1465589 C64.7436989,11.1465589 65.616465,11.446593 66.3270486,12.0451999 C67.0410415,12.6472164 67.4633005,13.4776679 67.6030795,14.5360674 L73.0856289,14.5360674 C73.0003978,13.3364181 72.7247362,12.2473333 72.2469552,11.2727096 C71.7755056,10.2951634 71.1258013,9.45984122 70.3017386,8.76089815 C69.47865,8.06585164 68.5167565,7.53251181 67.41411,7.16915883 C66.3124376,6.80775413 65.0924157,6.62559057 63.7530703,6.62559057 C62.3026811,6.62559057 60.9833041,6.83551702 59.801758,7.25147338 C58.6124193,7.67132629 57.6008482,8.30695047 56.7646097,9.15688471 C55.9293452,10.0097414 55.280128,11.1036968 54.8193932,12.444596 C54.3586584,13.7840339 54.1268299,15.3738249 54.1268299,17.2149433 C54.1268299,19.0546004 54.3586584,20.6687448 54.8193932,22.0500706 C55.280128,23.428474 55.9293452,24.5881837 56.7646097,25.5209196 C57.6008482,26.4565779 58.6012175,27.1569821 59.7559767,27.6172617 C60.9146322,28.0746189 62.1921242,28.3059763 63.5855304,28.3059763 C64.8420799,28.3059763 66.0065798,28.1096878 67.0790302,27.7205202 C68.1519676,27.3298914 69.1089907,26.7858361 69.9462033,26.0883542 C70.783903,25.3903853 71.4759793,24.5521407 72.0175618,23.5775169 C72.5630407,22.6004578 72.904452,21.5118601 73.0442309,20.3107496 L67.5616815,20.3107496 C67.4496636,21.4290585 67.0171768,22.2785057 66.2651952,22.864936 C65.5107785,23.4513662 64.6039199,23.7436072 63.5426713,23.7436072 C62.484832,23.7436072 61.5521606,23.200039 60.7412479,22.1124154 C59.9327703,21.0218694 59.5280445,19.3487896 59.5280445,17.0892796 C59.5280445,15.9738931 59.6386013,15.0309288 59.8626373,14.2652574 C60.083264,13.4961765 60.3866866,12.8834445 60.7612163,12.423165 Z M74.6196907,5.05138571 L80.0413608,5.05138571 L80.0413608,0.00633188836 L74.6196907,0.00633188836 L74.6196907,5.05138571 Z M74.6196907,28.2889289 L80.0413608,28.2889289 L80.0413608,6.57298719 L74.6196907,6.57298719 L74.6196907,28.2889289 Z M81.6091254,28.2957479 L87.0278733,28.2957479 L87.0278733,0 L81.6091254,0 L81.6091254,28.2957479 Z M88.6365488,5.04895037 L94.0562708,5.04895037 L94.0562708,0.00292241001 L88.6365488,0.00292241001 L88.6365488,5.04895037 Z M88.6365488,28.2937996 L94.0562708,28.2937996 L94.0562708,6.56275876 L88.6365488,6.56275876 L88.6365488,28.2937996 Z M108.994745,28.2762165 C108.830127,27.7462861 108.720057,26.6007014 108.665022,25.9041937 C108.022623,26.6270031 107.177618,27.2051532 106.12124,27.6357216 C105.064375,28.0638547 103.841431,28.2820613 102.452895,28.2820613 C100.089315,28.2820613 98.3613164,27.7613852 97.2625662,26.7166236 C96.164303,25.6762457 95.6144408,24.3212216 95.6144408,22.6510642 C95.6144408,21.1786567 95.8496786,20.0067702 96.3225892,19.1295602 C96.7930647,18.251376 97.4495875,17.5650967 98.2833909,17.0639034 C99.1162202,16.5636842 100.111232,16.1978959 101.265991,15.9597194 C102.41588,15.7249525 103.675839,15.5091812 105.038075,15.3138668 C106.398363,15.1205007 107.31691,14.8613804 107.790308,14.5423506 C108.260296,14.2238079 108.497969,13.7031318 108.497969,12.9778871 C108.497969,12.3125518 108.184806,11.7899274 107.55994,11.4139107 C106.935075,11.038381 106.092992,10.8528079 105.038075,10.8528079 C103.788831,10.8528079 102.890252,11.1299498 102.346721,11.6866689 C101.804652,12.2414398 101.465188,12.9778871 101.324435,13.8940626 L96.2802172,13.8940626 C96.3084652,12.8390726 96.4833107,11.8683454 96.8028054,10.9774974 C97.1213261,10.0876236 97.6375829,9.32341337 98.3442702,8.68097024 C99.0524186,8.04534606 99.9768104,7.55145877 101.115985,7.20125664 C102.254185,6.85592519 103.639311,6.68447713 105.276235,6.68447713 C106.881988,6.68447713 108.245685,6.86274414 109.367326,7.22512298 C110.487993,7.58604062 111.38852,8.10671667 112.068907,8.78715114 C112.74686,9.46904681 113.238765,10.3160586 113.542187,11.3320832 C113.849993,12.3485948 114,13.4922313 114,14.7702986 L114,28.2762165 L108.994745,28.2762165 Z M108.62265,17.6902732 C108.346501,17.9688763 107.940315,18.1890312 107.411882,18.3565827 C106.885397,18.5216989 106.12124,18.7053237 105.118923,18.900151 C103.561873,19.2040816 102.492832,19.5922751 101.908877,20.0666797 C101.324435,20.5391359 101.035624,21.2195704 101.035624,22.1113925 C101.035624,23.6393259 101.908877,24.4054844 103.660741,24.4054844 C104.353791,24.4054844 105.002034,24.2846914 105.6006,24.0489504 C106.198678,23.8151576 106.711039,23.4941795 107.143039,23.0903999 C107.57309,22.6866202 107.917911,22.2122157 108.184806,21.6720569 C108.448292,21.1289757 108.580765,20.5527739 108.580765,19.9419902 L108.62265,17.6902732 Z" id="logo-cilia" fill-rule="nonzero" fill="#FFF"></path></svg>